HIERARCHY
ROOT root
{
  OFFSET 0 93.2929 0
  CHANNELS 6 Xposition Yposition Zposition Zrotation Xrotation Yrotation
  JOINT torso_1
  {
    OFFSET 0 5.07867 -1.15138
    CHANNELS 6 Xposition Yposition Zposition Zrotation Xrotation Yrotation
    JOINT torso_2
    {
      OFFSET 0 5.61661 1.07143
      CHANNELS 6 Xposition Yposition Zposition Zrotation Xrotation Yrotation
      JOINT torso_3
      {
        OFFSET -1.02604e-17 5.98978 0.11501
        CHANNELS 6 Xposition Yposition Zposition Zrotation Xrotation Yrotation
        JOINT torso_4
        {
          OFFSET -1.10457e-17 6.50583 -0.443523
          CHANNELS 6 Xposition Yposition Zposition Zrotation Xrotation Yrotation
          JOINT torso_5
          {
            OFFSET -1.97295e-17 7.60548 -1.50593
            CHANNELS 6 Xposition Yposition Zposition Zrotation Xrotation Yrotation
            JOINT torso_6
            {
              OFFSET -2.53307e-17 9.49737 -0.914492
              CHANNELS 6 Xposition Yposition Zposition Zrotation Xrotation Yrotation
              JOINT torso_7
              {
                OFFSET -2.90401e-17 10.5513 1.57691
                CHANNELS 6 Xposition Yposition Zposition Zrotation Xrotation Yrotation
                JOINT neck_1
                {
                  OFFSET -1.29193e-17 4.78644 0.715339
                  CHANNELS 6 Xposition Yposition Zposition Zrotation Xrotation Yrotation
                  JOINT neck_2
                  {
                    OFFSET -1.8116e-17 4.82109 0.421791
                    CHANNELS 6 Xposition Yposition Zposition Zrotation Xrotation Yrotation
                    JOINT head
                    {
                      OFFSET -2.00958e-17 4.83041 0.765062
                      CHANNELS 6 Xposition Yposition Zposition Zrotation Xrotation Yrotation
                      End Site
                      {
                        OFFSET 0 0.1 0
                      }
                    }
                  }
                }
                JOINT l_shoulder
                {
                  OFFSET 1.23299 -7.60731 7.53374
                  CHANNELS 6 Xposition Yposition Zposition Zrotation Xrotation Yrotation
                  JOINT l_up_arm
                  {
                    OFFSET 12.9547 3.2495 -3.26872
                    CHANNELS 6 Xposition Yposition Zposition Zrotation Xrotation Yrotation
                    JOINT l_low_arm
                    {
                      OFFSET 29.2081 0.0598081 0.137039
                      CHANNELS 6 Xposition Yposition Zposition Zrotation Xrotation Yrotation
                      JOINT l_hand
                      {
                        OFFSET 24.234 0.0496219 0.113701
                        CHANNELS 6 Xposition Yposition Zposition Zrotation Xrotation Yrotation
                        End Site
                        {
                          OFFSET 0.1 0 0
                        }
                      }
                    }
                  }
                }
                JOINT r_shoulder
                {
                  OFFSET -1.23299 -7.60729 7.53365
                  CHANNELS 6 Xposition Yposition Zposition Zrotation Xrotation Yrotation
                  JOINT r_up_arm
                  {
                    OFFSET -12.9547 3.2495 -3.26872
                    CHANNELS 6 Xposition Yposition Zposition Zrotation Xrotation Yrotation
                    JOINT r_low_arm
                    {
                      OFFSET -29.2081 0.0598081 0.137039
                      CHANNELS 6 Xposition Yposition Zposition Zrotation Xrotation Yrotation
                      JOINT r_hand
                      {
                        OFFSET -24.234 0.0496218 0.113702
                        CHANNELS 6 Xposition Yposition Zposition Zrotation Xrotation Yrotation
                        End Site
                        {
                          OFFSET -0.1 0 0
                        }
                      }
                    }
                  }
                }
              }
            }
          }
        }
      }
    }
  }
  JOINT l_up_leg
  {
    OFFSET 9.23673 -4.20556 2.0327
    CHANNELS 6 Xposition Yposition Zposition Zrotation Xrotation Yrotation
    JOINT l_low_leg
    {
      OFFSET -0.852353 -38.7721 -0.655187
      CHANNELS 6 Xposition Yposition Zposition Zrotation Xrotation Yrotation
      JOINT l_foot
      {
        OFFSET -2.32622 -40.4017 -6.04875
        CHANNELS 6 Xposition Yposition Zposition Zrotation Xrotation Yrotation
        JOINT l_toes
        {
          OFFSET 0.779096 -9.8844 12.4959
          CHANNELS 6 Xposition Yposition Zposition Zrotation Xrotation Yrotation
          End Site
          {
            OFFSET 0 0 0.1
          }
        }
      }
    }
  }
  JOINT r_up_leg
  {
    OFFSET -9.23673 -4.20556 2.0327
    CHANNELS 6 Xposition Yposition Zposition Zrotation Xrotation Yrotation
    JOINT r_low_leg
    {
      OFFSET 0.852353 -38.7721 -0.655187
      CHANNELS 6 Xposition Yposition Zposition Zrotation Xrotation Yrotation
      JOINT r_foot
      {
        OFFSET 2.32622 -40.4017 -6.04875
        CHANNELS 6 Xposition Yposition Zposition Zrotation Xrotation Yrotation
        JOINT r_toes
        {
          OFFSET -0.779096 -9.8844 12.4959
          CHANNELS 6 Xposition Yposition Zposition Zrotation Xrotation Yrotation
          End Site
          {
            OFFSET 0 0 0.1
          }
        }
      }
    }
  }
}
MOTION
Frames: 6
Frame Time: 0.016667
4.02439 92.1339 66.6144 -9.62752 7.87033 176.397 0 5.07867 -1.15138 -4.21615 1.06319 0.128237 0 5.61661 1.07143 -3.09044 1.26732 -0.418124 -1.02604e-17 5.98978 0.11501 -2.10469 1.96029 -0.318394 -1.10457e-17 6.50583 -0.443523 -1.10084 2.61556 -0.332649 -1.97295e-17 7.60548 -1.50593 -0.152097 2.5112 -0.279214 -2.53307e-17 9.49737 -0.914492 0.749043 2.32935 -0.777884 -2.90401e-17 10.5513 1.57691 0.0613401 0.321448 0.0357239 -1.29193e-17 4.78644 0.715339 0.329312 1.94226 0.422567 -1.8116e-17 4.82109 0.421791 1.05349 -6.0971 -0.0157245 -2.00958e-17 4.83041 0.765062 2.43072 -6.9342 0.932382 1.23299 -7.60731 7.53374 17.2882 3.47407 0.520389 12.9547 3.2495 -3.26872 -72.6957 49.8352 -0.0901588 29.2081 0.0598081 0.137039 4.9726 -1.06117 -24.6712 24.234 0.0496219 0.113701 -15.7846 -66.6592 -13.2266 -1.23299 -7.60729 7.53365 0.987988 4.42645 5.15087 -12.9547 3.2495 -3.26872 66.1579 23.6672 9.69614 -29.2081 0.0598081 0.137039 -1.62117 -0.102505 7.83534 -24.234 0.0496218 0.113702 6.28767 -46.8515 3.91013 9.23673 -4.20556 2.0327 -3.07289 3.58588 2.06095 -0.852353 -38.7721 -0.655187 -1.55608 5.80642 -0.0225133 -2.32622 -40.4017 -6.04875 -5.52182 2.97964 16.2147 0.779096 -9.8844 12.4959 8.19987e-16 -7.57867e-16 -2.48481e-17 -9.23673 -4.20556 2.0327 -14.4542 1.80623 23.852 0.852353 -38.7721 -0.655187 1.32644 4.95177 0.029125 2.32622 -40.4017 -6.04875 5.10846 -10.9303 -15.3301 -0.779096 -9.8844 12.4959 -1.39149e-15 -5.34234e-16 -1.27098e-14 
3.53961 92.1501 66.6964 -9.49439 7.91278 176.236 0 5.07867 -1.15138 -4.12799 1.49801 0.19834 0 5.61661 1.07143 -3.07297 1.48106 -0.318918 -1.02604e-17 5.98978 0.11501 -2.14294 1.96597 -0.230033 -1.10457e-17 6.50583 -0.443523 -1.17885 2.30983 -0.257206 -1.97295e-17 7.60548 -1.50593 -0.250111 2.00281 -0.205376 -2.53307e-17 9.49737 -0.914492 0.645058 1.58089 -0.637522 -2.90401e-17 10.5513 1.57691 0.0642255 0.325211 -0.0186615 -1.29193e-17 4.78644 0.715339 0.449978 3.20896 -0.340844 -1.8116e-17 4.82109 0.421791 1.2533 -6.42101 -0.34565 -2.00958e-17 4.83041 0.765062 2.4518 -7.64331 1.46083 1.23299 -7.60731 7.53374 17.4843 3.70328 -0.4584 12.9547 3.2495 -3.26872 -73.0276 49.7647 1.08366 29.2081 0.0598081 0.137039 4.72099 -0.950658 -23.351 24.234 0.0496219 0.113701 -19.4542 -65.8269 -17.4297 -1.23299 -7.60729 7.53365 -3.59754 3.978 4.34475 -12.9547 3.2495 -3.26872 67.4559 29.3054 8.36115 -29.2081 0.0598081 0.137039 -1.72671 -0.116959 8.34867 -24.234 0.0496218 0.113702 11.4754 -51.9068 8.01455 9.23673 -4.20556 2.0327 -3.23793 3.73602 2.15151 -0.852353 -38.7721 -0.655187 -1.51348 5.64802 -0.0239992 -2.32622 -40.4017 -6.04875 -5.25766 2.87473 16.1547 0.779096 -9.8844 12.4959 -1.16018e-15 -8.44499e-16 6.17843e-17 -9.23673 -4.20556 2.0327 -14.6102 1.69944 23.994 0.852353 -38.7721 -0.655187 1.32592 4.94982 0.0291362 2.32622 -40.4017 -6.04875 5.23879 -10.6427 -15.3383 -0.779096 -9.8844 12.4959 -5.99425e-16 -5.58986e-16 -1.27469e-14 
3.09354 92.1575 66.7717 -9.35463 7.93311 176.014 0 5.07867 -1.15138 -3.99856 1.77909 0.280217 0 5.61661 1.07143 -3.02238 1.60446 -0.195722 -1.02604e-17 5.98978 0.11501 -2.15605 1.94726 -0.113319 -1.10457e-17 6.50583 -0.443523 -1.24053 2.08315 -0.149864 -1.97295e-17 7.60548 -1.50593 -0.335477 1.64976 -0.10188 -2.53307e-17 9.49737 -0.914492 0.556954 1.03025 -0.472897 -2.90401e-17 10.5513 1.57691 0.0728241 0.317645 -0.0623166 -1.29193e-17 4.78644 0.715339 0.559613 4.28864 -0.946312 -1.8116e-17 4.82109 0.421791 1.33654 -6.68189 -0.610692 -2.00958e-17 4.83041 0.765062 2.39559 -8.45128 1.71373 1.23299 -7.60731 7.53374 17.7287 3.8618 -1.42256 12.9547 3.2495 -3.26872 -73.406 50.1463 1.94634 29.2081 0.0598081 0.137039 4.56931 -0.887344 -22.5612 24.234 0.0496219 0.113701 -22.2651 -65.9183 -20.6296 -1.23299 -7.60729 7.53365 -7.72603 3.60409 3.70699 -12.9547 3.2495 -3.26872 68.6466 33.8539 7.16643 -29.2081 0.0598081 0.137039 -1.8531 -0.135536 8.96421 -24.234 0.0496218 0.113702 16.9313 -55.7831 12.4846 9.23673 -4.20556 2.0327 -3.39203 3.86617 2.25173 -0.852353 -38.7721 -0.655187 -1.47191 5.49334 -0.0253357 -2.32622 -40.4017 -6.04875 -4.92519 2.76725 16.0874 0.779096 -9.8844 12.4959 -7.71826e-16 -8.32459e-16 4.97442e-17 -9.23673 -4.20556 2.0327 -14.7291 1.48506 24.0649 0.852353 -38.7721 -0.655187 1.36101 5.08053 0.0283496 2.32622 -40.4017 -6.04875 5.40177 -10.4177 -15.3421 -0.779096 -9.8844 12.4959 1.95714e-16 -5.9621e-16 -1.27718e-14 
2.68371 92.161 66.8401 -9.23392 7.95651 175.755 0 5.07867 -1.15138 -3.85599 1.90534 0.364267 0 5.61661 1.07143 -2.95687 1.64788 -0.0666653 -1.02604e-17 5.98978 0.11501 -2.15126 1.92238 0.0149362 -1.10457e-17 6.50583 -0.443523 -1.28626 1.96313 -0.0255083 -1.97295e-17 7.60548 -1.50593 -0.403225 1.48355 0.0202834 -2.53307e-17 9.49737 -0.914492 0.490306 0.737709 -0.301822 -2.90401e-17 10.5513 1.57691 0.0821168 0.309658 -0.0888712 -1.29193e-17 4.78644 0.715339 0.603646 4.89146 -1.39359 -1.8116e-17 4.82109 0.421791 1.3814 -6.98651 -0.808234 -2.00958e-17 4.83041 0.765062 2.25181 -9.07518 1.78374 1.23299 -7.60731 7.53374 17.99 3.91409 -2.10449 12.9547 3.2495 -3.26872 -74.2131 50.7682 2.2517 29.2081 0.0598081 0.137039 4.52847 -0.870716 -22.3493 24.234 0.0496219 0.113701 -22.5454 -66.5263 -21.2211 -1.23299 -7.60729 7.53365 -10.8266 3.30442 3.20526 -12.9547 3.2495 -3.26872 69.3603 37.479 6.33166 -29.2081 0.0598081 0.137039 -2.00269 -0.15932 9.69399 -24.234 0.0496218 0.113702 21.5925 -58.8001 16.3978 9.23673 -4.20556 2.0327 -3.53776 3.9918 2.38033 -0.852353 -38.7721 -0.655187 -1.42923 5.33453 -0.0265902 -2.32622 -40.4017 -6.04875 -4.58746 2.68994 16.0067 0.779096 -9.8844 12.4959 2.39798e-15 -6.96274e-16 -8.64404e-17 -9.23673 -4.20556 2.0327 -14.8335 1.28169 24.2083 0.852353 -38.7721 -0.655187 1.38835 5.18232 0.0276813 2.32622 -40.4017 -6.04875 5.42309 -10.1776 -15.3401 -0.779096 -9.8844 12.4959 1.98785e-16 -5.96354e-16 -1.27719e-14 
2.30244 92.1589 66.9062 -9.14231 7.98051 175.543 0 5.07867 -1.15138 -3.76476 2.00038 0.464549 0 5.61661 1.07143 -2.92557 1.67775 0.069755 -1.02604e-17 5.98978 0.11501 -2.16146 1.90691 0.154054 -1.10457e-17 6.50583 -0.443523 -1.333 1.87192 0.114409 -1.97295e-17 7.60548 -1.50593 -0.452981 1.36766 0.162335 -2.53307e-17 9.49737 -0.914492 0.460911 0.544339 -0.130755 -2.90401e-17 10.5513 1.57691 0.088419 0.309547 -0.100762 -1.29193e-17 4.78644 0.715339 0.617564 5.09847 -2.0247 -1.8116e-17 4.82109 0.421791 1.42886 -7.24744 -1.09227 -2.00958e-17 4.83041 0.765062 2.19819 -9.45599 2.09062 1.23299 -7.60731 7.53374 18.1555 3.94591 -2.59933 12.9547 3.2495 -3.26872 -74.2585 50.9165 2.21291 29.2081 0.0598081 0.137039 4.46785 -0.846351 -22.0352 24.234 0.0496219 0.113701 -23.7388 -66.5327 -22.249 -1.23299 -7.60729 7.53365 -12.6594 3.19557 2.94789 -12.9547 3.2495 -3.26872 69.8432 40.0613 5.66902 -29.2081 0.0598081 0.137039 -2.12433 -0.180103 10.2885 -24.234 0.0496218 0.113702 24.8707 -61.112 19.3977 9.23673 -4.20556 2.0327 -3.68912 4.12815 2.49251 -0.852353 -38.7721 -0.655187 -1.37758 5.14224 -0.0279498 -2.32622 -40.4017 -6.04875 -4.31239 2.6056 15.9337 0.779096 -9.8844 12.4959 1.6182e-15 -7.32874e-16 -4.98401e-17 -9.23673 -4.20556 2.0327 -14.9742 1.11352 24.2767 0.852353 -38.7721 -0.655187 1.40411 5.24101 0.0272737 2.32622 -40.4017 -6.04875 5.73475 -10.0578 -15.3427 -0.779096 -9.8844 12.4959 -5.93283e-16 -5.59226e-16 -1.27472e-14 
1.94564 92.1486 66.9814 -9.03114 7.93953 175.363 0 5.07867 -1.15138 -3.70192 2.06411 0.55617 0 5.61661 1.07143 -2.90791 1.69418 0.188502 -1.02604e-17 5.98978 0.11501 -2.1722 1.89152 0.276671 -1.10457e-17 6.50583 -0.443523 -1.37081 1.79765 0.238962 -1.97295e-17 7.60548 -1.50593 -0.488313 1.28046 0.290782 -2.53307e-17 9.49737 -0.914492 0.445703 0.405999 0.0116648 -2.90401e-17 10.5513 1.57691 0.0950009 0.315188 -0.102919 -1.29193e-17 4.78644 0.715339 0.577799 4.97027 -2.38586 -1.8116e-17 4.82109 0.421791 1.42763 -7.48603 -1.2595 -2.00958e-17 4.83041 0.765062 2.18042 -9.59136 2.12515 1.23299 -7.60731 7.53374 18.3392 4.01398 -2.92551 12.9547 3.2495 -3.26872 -74.3675 51.2066 2.1515 29.2081 0.0598081 0.137039 4.43768 -0.834374 -21.8792 24.234 0.0496219 0.113701 -24.4141 -66.6188 -22.8162 -1.23299 -7.60729 7.53365 -13.5068 3.19533 2.86819 -12.9547 3.2495 -3.26872 69.9554 41.5093 5.2409 -29.2081 0.0598081 0.137039 -2.22526 -0.198338 10.7826 -24.234 0.0496218 0.113702 26.8159 -62.6071 21.1348 9.23673 -4.20556 2.0327 -3.79936 4.18862 2.61874 -0.852353 -38.7721 -0.655187 -1.32993 4.96474 -0.0290499 -2.32622 -40.4017 -6.04875 -4.06115 2.45683 15.8704 0.779096 -9.8844 12.4959 -1.15711e-15 -8.44403e-16 6.16883e-17 -9.23673 -4.20556 2.0327 -15.0703 0.919017 24.2733 0.852353 -38.7721 -0.655187 1.40487 5.24385 0.0272536 2.32622 -40.4017 -6.04875 5.91027 -9.91253 -15.3368 -0.779096 -9.8844 12.4959 -1.38842e-15 -5.3433e-16 -1.27099e-14 
